<svg width="64" height="64" viewBox="0 0 64 64" fill="none" xmlns="http://www.w3.org/2000/svg">
<path d="M44.845 13.2344L46.737 15.1237L43.9219 17.9375L42.0326 16.0482L44.8464 13.2344H44.845ZM20.1536 13.2344L22.9688 16.0482L21.0781 17.9375L18.2643 15.125L20.155 13.2344H20.1536ZM32.5 14.0729C32.9434 14.0783 33.3923 14.1038 33.8438 14.1589C33.8572 14.1589 33.8706 14.1562 33.8841 14.1589C39.3343 14.7837 43.6719 19.1872 44.4258 24.6132C45.0278 28.9804 43.2272 32.9405 40.2266 35.4909C38.9992 36.5384 38.169 37.9759 37.875 39.5625V47.625H34.8113C34.3436 48.4272 33.4903 48.9687 32.5 48.9687C31.5097 48.9687 30.6564 48.4272 30.1888 47.625H27.125V42.25H26.9987V40.6536C26.9987 38.6837 25.9748 36.6976 24.3112 35.1536C22.0859 32.9257 20.4062 29.7612 20.4062 26.1263C20.4062 19.4882 25.8699 14.0111 32.5 14.0729V14.0729ZM32.5 16.7604C27.3064 16.6878 23.0938 20.9394 23.0938 26.1263C23.0938 28.9401 24.3972 31.418 26.2018 33.2213L26.1588 33.2643C27.9522 34.9181 29.1119 37.1461 29.4376 39.5638H35.3152C35.6108 37.2606 36.5984 35.0313 38.4649 33.4323C40.8393 31.4167 42.2543 28.3798 41.7813 24.9505C41.1941 20.7177 37.7594 17.314 33.5508 16.8477C33.2033 16.7993 32.8534 16.7706 32.5027 16.7617L32.5 16.7604ZM51.3125 26.1263V28.8138H47.2812V26.1263H51.3125ZM17.7188 26.1263V28.8138H13.6875V26.1263H17.7188ZM43.9219 37.0026L46.7357 39.8151L44.845 41.7057L42.0339 38.8919L43.9219 37.0026ZM21.0781 37.0026L22.9674 38.8919L20.155 41.7057L18.2643 39.8151L21.0781 37.0026ZM35.1875 42.2513H29.8125V44.9388H35.1875V42.2513Z" fill="black"/>
</svg>
