<svg width="64" height="64" viewBox="0 0 64 64" fill="none" xmlns="http://www.w3.org/2000/svg">
<path d="M50.9152 17.6741H13.1473C12.3126 17.6741 11.5121 18.0057 10.9218 18.5959C10.3316 19.1862 10 19.9867 10 20.8214V42.8527C10 43.6874 10.3316 44.4879 10.9218 45.0782C11.5121 45.6684 12.3126 46 13.1473 46H50.9152C51.7499 46 52.5504 45.6684 53.1407 45.0782C53.7309 44.4879 54.0625 43.6874 54.0625 42.8527V20.8214C54.0625 19.9867 53.7309 19.1862 53.1407 18.5959C52.5504 18.0057 51.7499 17.6741 50.9152 17.6741ZM13.1473 42.8527V20.8214H50.9152V42.8527H13.1473Z" fill="black"/>
<path d="M22.5894 27.1172H39.8996V23.9699H22.5894V27.1172Z" fill="black"/>
<path d="M16.2944 39.707H19.4418V36.5597H16.2944V39.707Z" fill="black"/>
<path d="M22.5894 39.707H25.7367V36.5597H22.5894V39.707Z" fill="black"/>
<path d="M28.8838 39.707H32.0311V36.5597H28.8838V39.707Z" fill="black"/>
<path d="M35.1787 39.707H38.326V36.5597H35.1787V39.707Z" fill="black"/>
<path d="M16.2944 27.1172H19.4418V23.9699H16.2944V27.1172Z" fill="black"/>
<path d="M16.2944 33.4121H19.4418V30.2648H16.2944V33.4121Z" fill="black"/>
<path d="M22.5894 33.4121H25.7367V30.2648H22.5894V33.4121Z" fill="black"/>
<path d="M28.8838 33.4121H32.0311V30.2648H28.8838V33.4121Z" fill="black"/>
<path d="M41.4731 39.707H47.7678V36.5597H41.4731V39.707Z" fill="black"/>
<path d="M41.4731 33.4121H47.7678V30.2648H41.4731V33.4121Z" fill="black"/>
<path d="M35.1787 33.4121H38.326V30.2648H35.1787V33.4121Z" fill="black"/>
<path d="M43.0469 27.1172H47.7679V23.9699H43.0469V27.1172Z" fill="black"/>
</svg>
