<svg width="64" height="64" viewBox="0 0 64 64" fill="none" xmlns="http://www.w3.org/2000/svg">
<path d="M26.3258 52.0755C26.038 51.954 25.7989 51.7402 25.6461 51.4677C25.4933 51.1953 25.4356 50.8797 25.4821 50.5708L28.0414 33.9068H21.2492C21.0339 33.9125 20.8201 33.8688 20.6244 33.7789C20.4286 33.6889 20.2562 33.5553 20.1203 33.3881C19.9844 33.221 19.8887 33.0248 19.8406 32.8149C19.7926 32.6049 19.7934 32.3867 19.843 32.1771L24.0617 13.8958C24.136 13.5812 24.3163 13.3018 24.5725 13.1045C24.8286 12.9073 25.1449 12.8044 25.468 12.813H39.5305C39.7406 12.8123 39.9482 12.8587 40.138 12.9487C40.3278 13.0387 40.495 13.1702 40.6274 13.3333C40.7616 13.4983 40.8566 13.6916 40.9054 13.8987C40.9541 14.1057 40.9552 14.3211 40.9086 14.5286L38.4758 25.4693H45.1555C45.4191 25.4687 45.6775 25.5423 45.9012 25.6815C46.125 25.8208 46.3052 26.0201 46.4211 26.2568C46.5219 26.4839 46.5607 26.7337 46.5335 26.9807C46.5063 27.2278 46.4142 27.4632 46.2664 27.663L27.9852 51.5692C27.8616 51.7524 27.6967 51.9039 27.5036 52.0114C27.3106 52.1189 27.095 52.1794 26.8742 52.188C26.6861 52.1845 26.5002 52.1463 26.3258 52.0755V52.0755ZM34.9602 28.2818L37.7727 15.6255H26.593L23.0211 31.0943H31.3321L29.0961 45.5505L42.343 28.2818H34.9602Z" fill="black"/>
</svg>
